<svg width="960" height="360" viewBox="0 0 960 360" fill="none" xmlns="http://www.w3.org/2000/svg" role="img" aria-labelledby="title desc">
  <title id="title">RoughCut A2 logo</title>
  <desc id="desc">RoughCut cyberpunk AI editing logo based on the selected A2 concept.</desc>
  <defs>
    <radialGradient id="bg" cx="0" cy="0" r="1" gradientUnits="userSpaceOnUse" gradientTransform="translate(480 168) rotate(90) scale(380 700)">
      <stop stop-color="#102331"/>
      <stop offset="0.54" stop-color="#071017"/>
      <stop offset="1" stop-color="#03070B"/>
    </radialGradient>
    <linearGradient id="cyan" x1="74" y1="0" x2="286" y2="0" gradientUnits="userSpaceOnUse">
      <stop stop-color="#0CE7F2"/>
      <stop offset="0.5" stop-color="#6FFBFF"/>
      <stop offset="1" stop-color="#00B7C9"/>
    </linearGradient>
    <linearGradient id="cutPink" x1="180" y1="190" x2="180" y2="300" gradientUnits="userSpaceOnUse">
      <stop stop-color="#FFD2EA"/>
      <stop offset="0.24" stop-color="#FF4FA8"/>
      <stop offset="1" stop-color="#FF2D8D"/>
    </linearGradient>
    <linearGradient id="word" x1="300" y1="0" x2="820" y2="0" gradientUnits="userSpaceOnUse">
      <stop stop-color="#FFFFFF"/>
      <stop offset="0.6" stop-color="#F4F7FA"/>
      <stop offset="0.6" stop-color="#10E2EA"/>
      <stop offset="1" stop-color="#00AEBF"/>
    </linearGradient>
    <filter id="cyanGlow" x="-20" y="-20" width="390" height="360" color-interpolation-filters="sRGB">
      <feGaussianBlur stdDeviation="4.5" result="blur"/>
      <feColorMatrix in="blur" type="matrix" values="0 0 0 0 0.04 0 0 0 0 0.8 0 0 0 0 0.95 0 0 0 0.55 0"/>
      <feBlend in="SourceGraphic" mode="screen"/>
    </filter>
    <filter id="pinkGlow" x="148" y="188" width="64" height="118" color-interpolation-filters="sRGB">
      <feGaussianBlur stdDeviation="3.4" result="blur"/>
      <feColorMatrix in="blur" type="matrix" values="0 0 0 0 1 0 0 0 0 0.12 0 0 0 0 0.55 0 0 0 0.72 0"/>
      <feBlend in="SourceGraphic" mode="screen"/>
    </filter>
  </defs>

  <rect width="960" height="360" rx="32" fill="url(#bg)"/>
  <g transform="translate(0 0)">
    <path d="M70 106V72H104" stroke="#0CE7F2" stroke-width="5" stroke-linecap="square"/>
    <path d="M290 106V72H256" stroke="#0CE7F2" stroke-width="5" stroke-linecap="square"/>
    <path d="M70 216V250H104" stroke="#0CE7F2" stroke-width="5" stroke-linecap="square"/>
    <path d="M290 216V250H256" stroke="#0CE7F2" stroke-width="5" stroke-linecap="square"/>

    <g filter="url(#cyanGlow)">
      <path d="M74 172C103 121 140 96 180 96C220 96 257 121 286 172" stroke="url(#cyan)" stroke-width="6" stroke-linecap="round"/>
      <path d="M106 171C126 144 148 131 180 131C212 131 234 144 254 171" stroke="#105568" stroke-width="3" stroke-linecap="round"/>
      <path d="M46 172H314" stroke="url(#cyan)" stroke-width="3"/>
      <path d="M46 172H314" stroke="#6FFBFF" stroke-width="1"/>
      <circle cx="180" cy="172" r="58" stroke="#0B5361" stroke-width="3"/>
      <path d="M180 114A58 58 0 0 1 236 155" stroke="url(#cyan)" stroke-width="11"/>
      <path d="M128 197A58 58 0 0 1 122 172" stroke="#0CE7F2" stroke-width="8" stroke-linecap="round"/>
      <circle cx="180" cy="172" r="38" fill="#071017" stroke="#114B59" stroke-width="2"/>
      <path d="M169 148L205 172L169 196V148Z" fill="#8DFBFF"/>
      <path d="M181 123V131M200 128L197 136M218 139L211 145M230 157L222 160M236 176H228" stroke="#0CE7F2" stroke-width="2" stroke-linecap="round"/>
      <path d="M225 195L232 201M203 211L207 219M180 220V228" stroke="#B8F9FF" stroke-opacity="0.72" stroke-width="2" stroke-linecap="round"/>
      <path d="M139 117L130 122M120 139L112 146M106 165H98" stroke="#B8F9FF" stroke-opacity="0.75" stroke-width="2" stroke-linecap="round"/>
    </g>

    <g opacity="0.88">
      <path d="M74 270H286" stroke="#5E7784" stroke-width="2"/>
      <path d="M83 248H136V292H83V248Z" stroke="#5E7784" stroke-width="2"/>
      <path d="M224 248H277V292H224V248Z" stroke="#5E7784" stroke-width="2"/>
      <rect x="121" y="263" width="27" height="14" fill="#00CDD9"/>
      <rect x="159" y="263" width="29" height="14" fill="#00CDD9"/>
      <rect x="203" y="263" width="31" height="14" fill="#00CDD9"/>
      <rect x="246" y="263" width="24" height="14" fill="#55636E"/>
      <path d="M55 252H70M290 252H305" stroke="#FF8B3D" stroke-width="3" stroke-linecap="round"/>
    </g>

    <g filter="url(#pinkGlow)">
      <path d="M180 230V304" stroke="url(#cutPink)" stroke-width="4" stroke-linecap="round"/>
      <path d="M180 247L167 226H193L180 247Z" fill="#FF4FA8" stroke="#FFE4F1" stroke-width="3"/>
    </g>
  </g>

  <g transform="translate(344 126)">
    <text x="0" y="82" fill="url(#word)" font-family="Orbitron, Rajdhani, IBM Plex Sans, Segoe UI, Arial, sans-serif" font-size="82" font-weight="700" letter-spacing="-2">RoughCut</text>
    <path d="M6 109H472" stroke="#64737C" stroke-opacity="0.45" stroke-width="2"/>
    <rect x="260" y="101" width="36" height="10" fill="#00CDD9"/>
    <rect x="306" y="101" width="24" height="10" fill="#00CDD9"/>
    <rect x="342" y="101" width="52" height="10" fill="#33434D"/>
    <path d="M414 106H492" stroke="#FF8B3D" stroke-width="3" stroke-linecap="round" stroke-dasharray="14 10"/>
    <text x="4" y="143" fill="#7AEFF6" fill-opacity="0.78" font-family="IBM Plex Sans, Segoe UI, Arial, sans-serif" font-size="18" font-weight="700" letter-spacing="5">AI ROUGH CUT PIPELINE</text>
  </g>
</svg>
